<mxfile host="app.diagrams.net" modified="2021-10-14T11:13:59.539Z" agent="5.0 (Windows NT 10.0; Win64; x64) AppleWebKit/537.36 (KHTML, like Gecko) Chrome/90.0.4430.212 Safari/537.36" etag="Z41oGBz1kwTB_ZQL_enD" version="15.5.2" type="github">
  <diagram id="CxcaLeXnB662m-q3Z4ex" name="第 1 页">
    <mxGraphModel dx="1422" dy="762" grid="1" gridSize="10" guides="1" tooltips="1" connect="1" arrows="1" fold="1" page="1" pageScale="1" pageWidth="827" pageHeight="1169" math="0" shadow="0">
      <root>
        <mxCell id="0" />
        <mxCell id="1" parent="0" />
        <mxCell id="VNCoB3pL2GN9j2kzThXm-1" value="&lt;font style=&quot;font-size: 18px&quot;&gt;建立连接&lt;/font&gt;" style="rounded=0;whiteSpace=wrap;html=1;fillColor=#dae8fc;strokeColor=#6c8ebf;" vertex="1" parent="1">
          <mxGeometry x="210" y="160" width="160" height="40" as="geometry" />
        </mxCell>
        <mxCell id="VNCoB3pL2GN9j2kzThXm-2" value="&lt;font style=&quot;font-size: 18px&quot;&gt;结果转换&lt;br&gt;&lt;/font&gt;" style="rounded=0;whiteSpace=wrap;html=1;fillColor=#d5e8d4;strokeColor=#82b366;" vertex="1" parent="1">
          <mxGeometry x="210" y="400" width="160" height="40" as="geometry" />
        </mxCell>
        <mxCell id="VNCoB3pL2GN9j2kzThXm-3" value="&lt;font style=&quot;font-size: 18px&quot;&gt;释放连接&lt;/font&gt;" style="rounded=0;whiteSpace=wrap;html=1;fillColor=#dae8fc;strokeColor=#6c8ebf;" vertex="1" parent="1">
          <mxGeometry x="210" y="580" width="160" height="40" as="geometry" />
        </mxCell>
        <mxCell id="VNCoB3pL2GN9j2kzThXm-4" value="&lt;font style=&quot;font-size: 18px&quot;&gt;创建Statement&lt;/font&gt;" style="rounded=0;whiteSpace=wrap;html=1;fillColor=#f8cecc;strokeColor=#b85450;" vertex="1" parent="1">
          <mxGeometry x="210" y="220" width="160" height="40" as="geometry" />
        </mxCell>
        <mxCell id="VNCoB3pL2GN9j2kzThXm-5" value="&lt;span style=&quot;font-size: 18px&quot;&gt;提交查询&lt;/span&gt;" style="rounded=0;whiteSpace=wrap;html=1;fillColor=#d5e8d4;strokeColor=#82b366;" vertex="1" parent="1">
          <mxGeometry x="210" y="280" width="160" height="40" as="geometry" />
        </mxCell>
        <mxCell id="VNCoB3pL2GN9j2kzThXm-6" value="&lt;span style=&quot;font-size: 18px&quot;&gt;获取结果&lt;br&gt;&lt;/span&gt;" style="rounded=0;whiteSpace=wrap;html=1;fillColor=#d5e8d4;strokeColor=#82b366;" vertex="1" parent="1">
          <mxGeometry x="210" y="340" width="160" height="40" as="geometry" />
        </mxCell>
        <mxCell id="VNCoB3pL2GN9j2kzThXm-7" value="&lt;font style=&quot;font-size: 18px&quot;&gt;关闭结果&lt;br&gt;&lt;/font&gt;" style="rounded=0;whiteSpace=wrap;html=1;fillColor=#d5e8d4;strokeColor=#82b366;" vertex="1" parent="1">
          <mxGeometry x="210" y="460" width="160" height="40" as="geometry" />
        </mxCell>
        <mxCell id="VNCoB3pL2GN9j2kzThXm-8" value="&lt;font style=&quot;font-size: 18px&quot;&gt;关闭Statement&lt;/font&gt;" style="rounded=0;whiteSpace=wrap;html=1;fillColor=#f8cecc;strokeColor=#b85450;" vertex="1" parent="1">
          <mxGeometry x="210" y="520" width="160" height="40" as="geometry" />
        </mxCell>
      </root>
    </mxGraphModel>
  </diagram>
</mxfile>
